<svg version="1.0" xmlns="http://www.w3.org/2000/svg"
 width="512.000000pt" height="512" viewBox="0 0 512 512"
 preserveAspectRatio="xMidYMid meet">
<g transform="translate(0.000000,512) scale(0.100000,-0.100000)"
fill="#000000" stroke="none">
<path d="M1694 4320 c-221 -33 -404 -195 -465 -410 -21 -75 -17 -224 8 -305
54 -172 196 -314 368 -368 99 -31 244 -30 337 1 396 136 514 622 223 918 -125
127 -304 190 -471 164z"/>
<path d="M3913 3880 c-380 -68 -576 -467 -401 -814 42 -83 154 -193 238 -234
282 -138 616 -26 750 252 107 222 64 473 -111 644 -123 120 -313 181 -476 152z"/>
<path d="M201 2708 c-66 -25 -143 -99 -174 -166 -17 -36 -22 -66 -22 -127 0
-97 16 -136 103 -250 538 -705 1515 -1208 2602 -1340 272 -32 697 -37 931 -10
492 58 892 177 1239 371 124 69 169 109 205 180 25 50 29 71 29 139 1 93 -19
148 -79 214 -49 54 -89 77 -163 96 -94 24 -147 11 -353 -93 -253 -129 -497
-204 -819 -254 -129 -20 -183 -22 -480 -22 -266 -1 -361 3 -460 17 -609 86
-1120 269 -1560 562 -232 154 -430 333 -584 528 -79 100 -138 148 -206 167
-58 16 -150 11 -209 -12z"/>
</g>
</svg>
